<svg width="48" height="48" viewBox="0 0 48 48" fill="none" xmlns="http://www.w3.org/2000/svg">
<g clip-path="url(#clip0_49_138)">
<path d="M23.7379 0C10.6279 0 0 10.6279 0 23.7379C0 34.87 7.66449 44.2114 18.0038 46.777V30.9922H13.109V23.7379H18.0038V20.6121C18.0038 12.5327 21.6604 8.78777 29.5926 8.78777C31.0967 8.78777 33.6917 9.08307 34.7532 9.37742V15.9528C34.193 15.894 33.2198 15.8645 32.011 15.8645C28.119 15.8645 26.6149 17.3391 26.6149 21.1723V23.7379H34.3687L33.0365 30.9922H26.6149V47.302C38.369 45.8825 47.4768 35.8746 47.4768 23.7379C47.4758 10.6279 36.8479 0 23.7379 0Z" fill="white"/>
</g>
<defs>
<clipPath id="clip0_49_138">
<rect width="47.4758" height="47.4758" fill="white"/>
</clipPath>
</defs>
</svg>
