<svg width="48" height="48" viewBox="0 0 48 48" fill="none" xmlns="http://www.w3.org/2000/svg">
<g clip-path="url(#clip0_49_139)">
<path d="M23.9844 4.27468C30.3268 4.27468 31.0779 4.3025 33.5723 4.41377C35.8904 4.51577 37.1422 4.90522 37.9767 5.22976C39.0802 5.6563 39.8776 6.17556 40.7029 7.00083C41.5374 7.83536 42.0474 8.62354 42.474 9.72698C42.7985 10.5615 43.188 11.8226 43.29 14.1315C43.4012 16.6351 43.4291 17.3862 43.4291 23.7194C43.4291 30.0618 43.4012 30.8129 43.29 33.3073C43.188 35.6254 42.7985 36.8772 42.474 37.7117C42.0474 38.8152 41.5282 39.6126 40.7029 40.4379C39.8684 41.2724 39.0802 41.7824 37.9767 42.209C37.1422 42.5335 35.8811 42.923 33.5723 43.025C31.0686 43.1362 30.3176 43.164 23.9844 43.164C17.6419 43.164 16.8908 43.1362 14.3965 43.025C12.0783 42.923 10.8265 42.5335 9.99198 42.209C8.88854 41.7824 8.0911 41.2632 7.26583 40.4379C6.4313 39.6034 5.9213 38.8152 5.49476 37.7117C5.17022 36.8772 4.78077 35.6161 4.67877 33.3073C4.5675 30.8036 4.53968 30.0526 4.53968 23.7194C4.53968 17.3769 4.5675 16.6258 4.67877 14.1315C4.78077 11.8133 5.17022 10.5615 5.49476 9.72698C5.9213 8.62354 6.44057 7.82609 7.26583 7.00083C8.10037 6.16629 8.88854 5.6563 9.99198 5.22976C10.8265 4.90522 12.0876 4.51577 14.3965 4.41377C16.8908 4.3025 17.6419 4.27468 23.9844 4.27468ZM23.9844 0C17.5399 0 16.7332 0.0278179 14.2018 0.139089C11.6796 0.250361 9.94562 0.658356 8.44346 1.24253C6.87638 1.85452 5.5504 2.66124 4.23369 3.98723C2.9077 5.30394 2.10098 6.62992 1.48899 8.18772C0.904816 9.69916 0.496821 11.4239 0.385549 13.946C0.274278 16.4867 0.24646 17.2934 0.24646 23.7379C0.24646 30.1824 0.274278 30.9891 0.385549 33.5205C0.496821 36.0427 0.904816 37.7766 1.48899 39.2788C2.10098 40.8459 2.9077 42.1719 4.23369 43.4886C5.5504 44.8053 6.87638 45.6213 8.43418 46.224C9.94562 46.8082 11.6703 47.2162 14.1925 47.3274C16.7239 47.4387 17.5306 47.4665 23.9751 47.4665C30.4196 47.4665 31.2263 47.4387 33.7577 47.3274C36.2799 47.2162 38.0138 46.8082 39.516 46.224C41.0738 45.6213 42.3998 44.8053 43.7165 43.4886C45.0332 42.1719 45.8492 40.8459 46.4519 39.2881C47.0361 37.7767 47.4441 36.0519 47.5554 33.5298C47.6666 30.9984 47.6945 30.1916 47.6945 23.7472C47.6945 17.3027 47.6666 16.496 47.5554 13.9646C47.4441 11.4424 47.0361 9.70843 46.4519 8.20627C45.8677 6.62992 45.061 5.30394 43.735 3.98723C42.4183 2.67051 41.0924 1.85452 39.5345 1.2518C38.0231 0.667629 36.2984 0.259633 33.7763 0.148362C31.2356 0.0278179 30.4288 0 23.9844 0Z" fill="white"/>
<path d="M23.9844 11.5439C17.2525 11.5439 11.7909 17.0055 11.7909 23.7374C11.7909 30.4694 17.2525 35.9309 23.9844 35.9309C30.7163 35.9309 36.1779 30.4694 36.1779 23.7374C36.1779 17.0055 30.7163 11.5439 23.9844 11.5439ZM23.9844 31.647C19.617 31.647 16.0748 28.1048 16.0748 23.7374C16.0748 19.37 19.617 15.8279 23.9844 15.8279C28.3518 15.8279 31.8939 19.37 31.8939 23.7374C31.8939 28.1048 28.3518 31.647 23.9844 31.647Z" fill="white"/>
<path d="M39.5067 11.0625C39.5067 12.6389 38.2271 13.9092 36.66 13.9092C35.0837 13.9092 33.8134 12.6296 33.8134 11.0625C33.8134 9.48617 35.093 8.21582 36.66 8.21582C38.2271 8.21582 39.5067 9.49544 39.5067 11.0625Z" fill="white"/>
</g>
<defs>
<clipPath id="clip0_49_139">
<rect width="47.4758" height="47.4758" fill="white" transform="translate(0.24646)"/>
</clipPath>
</defs>
</svg>
