<svg width="49" height="42" viewBox="0 0 49 42" fill="none" xmlns="http://www.w3.org/2000/svg">
<g clip-path="url(#clip0_55_3982)">
<path d="M20.5856 1.14535C27.5635 1.03473 33.7653 4.52842 37.3632 9.87412L38.3562 9.28249C34.5516 3.60157 27.9745 -0.114188 20.5712 0.00229585C9.04066 0.183307 -0.1778 9.56238 0.00260333 20.9091C0.183007 32.2559 9.71036 41.3383 21.2315 41.1573C32.7527 40.9762 41.9771 31.5963 41.7933 20.2504C41.7413 16.9688 40.8885 13.7476 39.3068 10.8588L38.3111 11.4454C39.7887 14.1617 40.5844 17.1869 40.6317 20.268C40.8019 30.9838 32.094 39.8424 21.2128 40.0125C10.3316 40.1827 1.33776 31.6064 1.16331 20.8915C0.988868 10.1766 9.701 1.3163 20.5856 1.14535Z" fill="#6B7530"/>
<path d="M20.6707 6.81222C22.981 6.77487 25.2647 7.30273 27.3169 8.34848C29.3691 9.39423 31.1257 10.9252 32.4293 12.804L36.4288 10.4274C34.7013 7.86206 32.3461 5.766 29.5801 4.33229C26.8141 2.89857 23.7262 2.17329 20.6009 2.22324C10.3043 2.38498 2.09337 10.735 2.25931 20.8733C2.42524 31.0116 10.9017 39.1001 21.1957 38.9367C31.4898 38.7733 39.7016 30.4233 39.5373 20.2858C39.4935 17.395 38.7536 14.5556 37.3784 12.0012L33.3696 14.3854C34.7326 17.0528 35.1775 20.0845 34.6372 23.0229C34.0968 25.9613 32.6005 28.6468 30.3741 30.674C28.1477 32.7013 25.312 33.9603 22.2951 34.2611C19.2783 34.5618 16.244 33.8878 13.6502 32.341C11.0564 30.7942 9.04403 28.4584 7.91675 25.6863C6.78946 22.9142 6.60848 19.8561 7.40113 16.9738C8.19378 14.0915 9.91703 11.5413 12.3108 9.70824C14.7045 7.87516 17.6388 6.85867 20.6707 6.81222Z" fill="#247616"/>
<path d="M20.823 15.991C21.5027 15.9793 22.1767 16.1149 22.7974 16.388C23.4181 16.6611 23.9703 17.0651 24.4149 17.5715L28.4306 15.184C27.0239 13.2872 24.9308 11.9954 22.5841 11.5757C20.2374 11.156 17.8167 11.6406 15.8227 12.9292C13.8286 14.2177 12.4136 16.2117 11.8705 18.4988C11.3274 20.7859 11.6976 23.191 12.9046 25.2168C14.1115 27.2427 16.063 28.7342 18.3553 29.3829C20.6475 30.0316 23.1053 29.7879 25.2203 28.7023C27.3352 27.6166 28.9456 25.7719 29.7183 23.5498C30.491 21.3277 30.3669 18.8982 29.3718 16.7636L25.3323 19.1662C25.6346 20.0853 25.6348 21.0749 25.3328 21.9941C25.0309 22.9133 24.4421 23.7152 23.6504 24.2858C22.8587 24.8563 21.9044 25.1663 20.9234 25.1716C19.9424 25.1769 18.9846 24.8774 18.1866 24.3155C17.3885 23.7536 16.7908 22.9581 16.4785 22.0423C16.1662 21.1264 16.1553 20.1369 16.4474 19.2146C16.7394 18.2923 17.3194 17.4842 18.1049 16.9054C18.8904 16.3266 19.8413 16.0066 20.8222 15.991H20.823Z" fill="#6B7530"/>
<path d="M21.5149 19.2962L24.415 17.5715C23.66 16.7207 22.6113 16.1762 21.4719 16.0434C20.3325 15.9107 19.1836 16.1992 18.2479 16.853C17.3122 17.5069 16.6563 18.4795 16.4073 19.5825C16.1583 20.6854 16.3338 21.8401 16.9 22.8228C17.4662 23.8055 18.3826 24.5463 19.4718 24.9015C20.5609 25.2568 21.7452 25.2012 22.7951 24.7456C23.845 24.29 24.6858 23.4668 25.1546 22.4356C25.6234 21.4043 25.6867 20.2384 25.3323 19.1638L22.3616 20.9303C22.1799 21.037 21.9633 21.0704 21.7572 21.0235C21.5511 20.9767 21.3713 20.8532 21.2554 20.6789L21.2111 20.6127C21.1418 20.507 21.0946 20.3888 21.0724 20.265C21.0501 20.1411 21.0532 20.0141 21.0815 19.8914C21.1098 19.7688 21.1627 19.6529 21.2372 19.5507C21.3116 19.4485 21.406 19.3619 21.5149 19.2962Z" fill="white"/>
<path d="M47.6537 8.99191C47.7448 9.03948 47.8469 9.06294 47.9499 9.06C48.053 9.05707 48.1535 9.02783 48.2417 8.97515L48.8552 8.61062C48.9009 8.58358 48.9384 8.545 48.9639 8.49888C48.9893 8.45276 49.0017 8.40077 48.9999 8.34832C48.9986 8.29613 48.9831 8.24525 48.9549 8.20101C48.9268 8.15677 48.887 8.12082 48.8399 8.09691L45.9994 6.62284L46.3194 6.43345C46.3531 6.4132 46.3825 6.38655 46.4057 6.35505C46.4289 6.32354 46.4456 6.28781 46.4547 6.24993C46.4643 6.21182 46.466 6.17217 46.4595 6.13342C46.4531 6.09466 46.4387 6.0576 46.4172 6.0245L46.0181 5.39263C45.976 5.32666 45.9093 5.27954 45.8323 5.26137C45.7553 5.24321 45.6742 5.25543 45.6063 5.29542L45.2769 5.49152L45.208 2.36153C45.2068 2.30975 45.1917 2.25921 45.1644 2.21495C45.1371 2.17069 45.0985 2.13426 45.0524 2.10932C45.0063 2.08438 44.9544 2.07179 44.9018 2.07281C44.8492 2.07384 44.7978 2.08844 44.7528 2.11515L44.1426 2.47885C44.0524 2.53209 43.9781 2.60789 43.9273 2.69856C43.8765 2.78923 43.851 2.89153 43.8533 2.99507L43.9273 6.29602L43.7656 6.39323L43.6942 3.26407C43.6926 3.21246 43.6774 3.16215 43.6501 3.11807C43.6228 3.07399 43.5843 3.03766 43.5384 3.01267C43.4919 2.98813 43.4397 2.97585 43.3869 2.97703C43.3341 2.9782 43.2826 2.99279 43.2372 3.01937L42.6254 3.37553C42.5352 3.42877 42.4609 3.50457 42.41 3.59524C42.3592 3.68591 42.3337 3.78821 42.336 3.89175L42.4109 7.19269L42.2475 7.2899L42.176 4.15991C42.1751 4.10803 42.1602 4.05733 42.1329 4.01292C42.1057 3.9685 42.067 3.93196 42.0208 3.90697C41.9746 3.88198 41.9226 3.86943 41.8699 3.87058C41.8172 3.87173 41.7658 3.88655 41.7208 3.91354L41.1115 4.27556C41.0215 4.3289 40.9473 4.40475 40.8967 4.49541C40.846 4.58607 40.8206 4.68832 40.823 4.79178L40.8868 7.60332C40.8875 7.65457 40.8746 7.70511 40.8496 7.75004C40.8245 7.79497 40.7881 7.83276 40.7439 7.85975L38.3501 9.28438L37.3571 9.87602L36.4261 10.4291L32.4266 12.8057L28.4271 15.1857L24.4148 17.5715L21.5147 19.2962C21.4051 19.3617 21.3099 19.4483 21.2348 19.5508C21.1597 19.6532 21.1063 19.7695 21.0778 19.8927C21.0492 20.0159 21.046 20.1434 21.0685 20.2678C21.0909 20.3922 21.1385 20.5109 21.2084 20.6169L21.2526 20.6831C21.3685 20.8574 21.5483 20.9808 21.7545 21.0277C21.9606 21.0745 22.1772 21.0411 22.3589 20.9345L25.3296 19.1679L29.3691 16.7653L33.3686 14.3871L37.3775 12.0029L38.3135 11.4481L39.3066 10.859L41.6978 9.43439C41.7414 9.40819 41.7912 9.39364 41.8422 9.39217C41.8932 9.3907 41.9438 9.40236 41.9888 9.42601L44.6268 10.7945C44.7178 10.8419 44.8197 10.8653 44.9226 10.8623C45.0255 10.8594 45.1259 10.8302 45.214 10.7777L45.8284 10.4132C45.8738 10.386 45.9111 10.3474 45.9365 10.3013C45.9618 10.2553 45.9744 10.2035 45.9728 10.1511C45.9713 10.0988 45.9557 10.0477 45.9276 10.0033C45.8996 9.95876 45.86 9.92238 45.8131 9.89781L42.9717 8.42458L43.1283 8.33156L46.1415 9.89446C46.2325 9.94187 46.3344 9.96524 46.4374 9.96231C46.5403 9.95937 46.6406 9.93022 46.7287 9.8777L47.3422 9.51232C47.3878 9.48485 47.4253 9.4461 47.451 9.39994C47.4767 9.35378 47.4896 9.30181 47.4886 9.24919C47.4867 9.19703 47.4708 9.14631 47.4426 9.10215C47.4143 9.058 47.3747 9.02199 47.3278 8.99778L44.4873 7.52455L44.6421 7.43069L47.6537 8.99191Z" fill="white"/>
</g>
<defs>
<clipPath id="clip0_55_3982">
<rect width="49" height="41.16" fill="white"/>
</clipPath>
</defs>
</svg>
