<svg width="49" height="49" viewBox="0 0 49 49" fill="none" xmlns="http://www.w3.org/2000/svg">
<g clip-path="url(#clip0_55_3990)">
<path d="M3.04069 21.3033C3.03002 21.3678 3.03356 21.4338 3.05105 21.4967C3.06854 21.5596 3.09956 21.6179 3.14192 21.6674C3.18428 21.717 3.23694 21.7566 3.29619 21.7834C3.35544 21.8103 3.41984 21.8237 3.48484 21.8229H6.46772C6.56935 21.8219 6.66756 21.7859 6.74596 21.7209C6.82437 21.6559 6.87822 21.5659 6.89854 21.4658C8.28606 14.4215 13.9161 8.84219 21.0375 7.45852C21.1375 7.43903 21.2277 7.38517 21.2925 7.30617C21.3574 7.22717 21.3928 7.12796 21.3928 7.02556V4.05735C21.3937 3.99212 21.3803 3.9275 21.3536 3.86803C21.3269 3.80856 21.2876 3.75568 21.2384 3.71313C21.1892 3.67058 21.1313 3.63939 21.0688 3.62174C21.0063 3.6041 20.9408 3.60043 20.8767 3.611C11.7451 5.12859 4.55434 12.2594 3.04069 21.3033Z" fill="#247616"/>
<path d="M42.5172 27.3807C42.4131 27.3811 42.3125 27.4187 42.2334 27.4867C42.1543 27.5547 42.1019 27.6488 42.0855 27.7521C40.8338 35.0633 35.0395 40.8685 27.6845 42.2137C27.5825 42.2309 27.4898 42.2837 27.423 42.363C27.3561 42.4423 27.3194 42.5428 27.3194 42.6467V45.6185C27.3186 45.6833 27.3319 45.7474 27.3583 45.8065C27.3847 45.8657 27.4236 45.9183 27.4723 45.9607C27.521 46.0032 27.5783 46.0345 27.6403 46.0525C27.7022 46.0705 27.7673 46.0747 27.831 46.0648C37.2221 44.608 44.5967 37.2272 45.9575 27.8931C45.9661 27.8294 45.9611 27.7646 45.9427 27.703C45.9244 27.6414 45.8931 27.5845 45.851 27.536C45.809 27.4876 45.7571 27.4488 45.6988 27.4221C45.6406 27.3955 45.5774 27.3817 45.5134 27.3816L42.5172 27.3807Z" fill="#247616"/>
<path d="M35.6329 27.3807C35.5363 27.3817 35.4427 27.4143 35.3663 27.4736C35.2898 27.5329 35.2347 27.6156 35.2092 27.7092C34.1947 31.3746 31.3069 34.2928 27.6383 35.3864C27.547 35.4133 27.4668 35.4689 27.4094 35.5451C27.352 35.6213 27.3204 35.7139 27.3194 35.8095V38.7911C27.3187 38.8583 27.3332 38.9247 27.3616 38.9855C27.3901 39.0462 27.4318 39.0998 27.4837 39.1421C27.5357 39.1844 27.5964 39.2144 27.6615 39.2298C27.7265 39.2452 27.7942 39.2457 27.8594 39.2312C33.485 37.9296 37.851 33.5287 39.0599 27.9154C39.0732 27.8502 39.0717 27.7829 39.0558 27.7184C39.0398 27.6539 39.0097 27.5937 38.9676 27.5424C38.9256 27.4911 38.8726 27.4498 38.8127 27.4217C38.7527 27.3935 38.6873 27.3792 38.6211 27.3798L35.6329 27.3807Z" fill="#6B7530"/>
<path d="M24.4227 49C24.9141 49.003 25.3868 48.8104 25.7374 48.4644C25.9118 48.2931 26.0504 48.0884 26.1448 47.8624C26.2392 47.6364 26.2877 47.3937 26.2872 47.1486V32.5405C27.7188 32.2065 29.0304 31.4809 30.0769 30.444C31.1234 29.4071 31.864 28.0994 32.2166 26.6657L47.1284 26.6425C47.622 26.6441 48.0962 26.4491 48.4471 26.1C48.7979 25.751 48.9967 25.2764 49 24.7803C49.0004 24.5343 48.9516 24.2908 48.8565 24.0642C48.7615 23.8375 48.6221 23.6324 48.4466 23.4609C48.0938 23.1122 47.6179 22.918 47.123 22.9208L32.2184 22.9503C31.866 21.518 31.1253 20.2121 30.0785 19.1776C29.0317 18.1431 27.7199 17.4207 26.289 17.0906V1.85323C26.2878 1.35604 26.0902 0.879687 25.7395 0.528957C25.3888 0.178228 24.9139 -0.0181462 24.4192 -0.0169625C23.9244 -0.0157787 23.4504 0.182866 23.1014 0.53527C22.7524 0.887673 22.557 1.36497 22.5582 1.86216V17.0978C21.1286 17.4336 19.8192 18.1599 18.7744 19.1964C17.7297 20.233 16.9902 21.5395 16.6377 22.9717L1.86364 23.0003C1.37171 22.9988 0.899279 23.1935 0.549932 23.5416C0.200584 23.8896 0.00282203 24.3627 2.25533e-06 24.8571C-0.000380649 25.1017 0.0479965 25.3439 0.142281 25.5695C0.236566 25.795 0.374848 25.9993 0.548966 26.1702C0.89958 26.5168 1.37272 26.7095 1.86453 26.7058L16.6351 26.6826C16.9877 28.113 17.7275 29.4173 18.7725 30.4511C19.8175 31.4849 21.1269 32.2077 22.5555 32.5396V47.1423C22.56 47.6369 22.7587 48.1096 23.1085 48.4576C23.4582 48.8055 23.9306 49.0005 24.4227 49ZM18.7616 24.924C18.7615 23.7834 19.0979 22.6684 19.7283 21.7199C20.3587 20.7715 21.2549 20.0322 22.3034 19.5956C23.3519 19.1589 24.5058 19.0446 25.619 19.267C26.7322 19.4894 27.7547 20.0386 28.5573 20.8451C29.3599 21.6515 29.9066 22.6791 30.128 23.7978C30.3495 24.9164 30.236 26.076 29.8017 27.1298C29.3674 28.1836 28.6319 29.0843 27.6882 29.718C26.7445 30.3517 25.635 30.6899 24.5 30.6899C22.9782 30.6899 21.5188 30.0825 20.4427 29.0012C19.3666 27.9199 18.7619 26.4533 18.7616 24.924Z" fill="#247616"/>
<path d="M27.8292 3.56269C27.7658 3.55404 27.7012 3.55912 27.6399 3.57757C27.5786 3.59603 27.5219 3.62744 27.4736 3.6697C27.4253 3.71196 27.3866 3.76409 27.36 3.82262C27.3334 3.88114 27.3195 3.9447 27.3193 4.00904V6.97814C27.3206 7.08194 27.3579 7.18205 27.4247 7.26123C27.4915 7.34042 27.5836 7.39373 27.6853 7.41199C34.9382 8.71979 40.6766 14.3705 42.033 21.5389C42.0508 21.6407 42.1037 21.733 42.1825 21.7994C42.2614 21.8659 42.361 21.9023 42.4638 21.9022H45.4689C45.5337 21.903 45.5978 21.8896 45.6568 21.8629C45.7159 21.8362 45.7684 21.7969 45.8107 21.7476C45.853 21.6984 45.8841 21.6404 45.9018 21.5779C45.9195 21.5153 45.9233 21.4496 45.9131 21.3853C44.4394 12.1942 37.1199 4.98029 27.8292 3.56269Z" fill="#247616"/>
<path d="M27.3194 10.8293V13.8145C27.3205 13.9101 27.3522 14.0029 27.4098 14.0791C27.4673 14.1553 27.5478 14.2108 27.6391 14.2376C31.2021 15.2946 34.0269 18.0762 35.115 21.5863C35.1425 21.6768 35.198 21.7562 35.2733 21.8131C35.3487 21.8699 35.4401 21.9011 35.5343 21.9023H38.5545C38.6215 21.9027 38.6877 21.8878 38.7481 21.8588C38.8086 21.8298 38.8617 21.7875 38.9036 21.7349C38.9455 21.6824 38.975 21.621 38.9899 21.5554C39.0048 21.4897 39.0048 21.4216 38.9897 21.356C37.6866 15.8989 33.3766 11.6515 27.8594 10.3892C27.7942 10.3747 27.7265 10.3752 27.6615 10.3906C27.5964 10.406 27.5357 10.436 27.4837 10.4783C27.4318 10.5206 27.3901 10.5742 27.3616 10.6349C27.3332 10.6957 27.3187 10.7621 27.3194 10.8293Z" fill="#6B7530"/>
<path d="M13.7454 28.0155C13.7178 27.9248 13.6622 27.8453 13.5867 27.7884C13.5111 27.7316 13.4196 27.7005 13.3252 27.6995H10.3228C10.2559 27.699 10.1898 27.7138 10.1294 27.7426C10.069 27.7714 10.0158 27.8136 9.97389 27.8659C9.93196 27.9183 9.90233 27.9795 9.88722 28.0449C9.87211 28.1104 9.8719 28.1785 9.88662 28.244C11.1853 33.7359 15.5326 38.0128 21.0942 39.259C21.1589 39.2722 21.2257 39.2709 21.2898 39.2549C21.3539 39.239 21.4136 39.2089 21.4647 39.1668C21.5157 39.1247 21.5568 39.0717 21.5849 39.0117C21.613 38.9517 21.6275 38.8861 21.6272 38.8198V35.8471C21.6269 35.7507 21.5953 35.6571 21.537 35.5805C21.4788 35.5039 21.3972 35.4486 21.3047 35.4231C17.6992 34.3804 14.8335 31.5693 13.7454 28.0155Z" fill="#6B7530"/>
<path d="M6.86994 28.0627C6.85181 27.9609 6.79864 27.8687 6.71972 27.8023C6.6408 27.7359 6.54116 27.6994 6.43823 27.6994H3.45179C3.38714 27.6986 3.32311 27.712 3.26415 27.7386C3.20519 27.7653 3.15273 27.8045 3.11044 27.8537C3.06814 27.9028 3.03703 27.9606 3.01928 28.0231C3.00152 28.0856 2.99755 28.1512 3.00764 28.2153C4.46977 37.4199 11.8106 44.6659 21.1244 46.0773C21.188 46.087 21.253 46.0827 21.3149 46.0646C21.3767 46.0466 21.4339 46.0153 21.4825 45.9728C21.531 45.9303 21.5699 45.8778 21.5962 45.8187C21.6226 45.7597 21.6359 45.6956 21.6351 45.6309V42.6636C21.6349 42.5594 21.5979 42.4586 21.5307 42.3792C21.4636 42.2998 21.3706 42.2468 21.2683 42.2298C13.9825 40.9318 8.21748 35.2534 6.86994 28.0627Z" fill="#247616"/>
<path d="M20.8491 10.4373C15.4545 11.7541 11.2405 15.9301 9.9169 21.2729C9.90129 21.3386 9.90076 21.4071 9.91534 21.4731C9.92992 21.5391 9.95923 21.601 10.0011 21.6539C10.0429 21.7069 10.0962 21.7496 10.1568 21.7789C10.2175 21.8081 10.284 21.8231 10.3513 21.8228H13.3715C13.465 21.8219 13.5559 21.7915 13.6312 21.7357C13.7065 21.6799 13.7623 21.6017 13.7907 21.5121C14.886 18.0958 17.6255 15.3829 21.0801 14.2947C21.1694 14.2673 21.2477 14.2121 21.3036 14.1369C21.3595 14.0618 21.3901 13.9707 21.391 13.8769V10.8756C21.3914 10.8084 21.3767 10.742 21.3481 10.6813C21.3194 10.6206 21.2774 10.5672 21.2253 10.525C21.1732 10.4829 21.1124 10.4531 21.0472 10.4379C20.9821 10.4228 20.9144 10.4225 20.8491 10.4373Z" fill="#6B7530"/>
<path d="M18.7617 24.924C18.7617 26.0646 19.0983 27.1796 19.7288 28.1279C20.3593 29.0762 21.2556 29.8154 22.3041 30.2519C23.3527 30.6883 24.5065 30.8025 25.6196 30.58C26.7327 30.3575 27.7552 29.8083 28.5577 29.0018C29.3603 28.1953 29.9068 27.1677 30.1282 26.0491C30.3496 24.9304 30.236 23.7709 29.8017 22.7172C29.3673 21.6634 28.6318 20.7628 27.6882 20.1291C26.7445 19.4954 25.635 19.1572 24.5001 19.1572C22.9782 19.1572 21.5186 19.7648 20.4425 20.8463C19.3663 21.9278 18.7617 23.3946 18.7617 24.924Z" fill="white"/>
</g>
<defs>
<clipPath id="clip0_55_3990">
<rect width="49" height="49" fill="white"/>
</clipPath>
</defs>
</svg>
